<mxfile host="65bd71144e" scale="3" border="0">
    <diagram id="JKlMBmUY0IBZMIKpudZ_" name="Page-1">
        <mxGraphModel dx="845" dy="1128" grid="1" gridSize="10" guides="1" tooltips="1" connect="1" arrows="1" fold="1" page="1" pageScale="1" pageWidth="850" pageHeight="1100" background="none" math="0" shadow="0">
            <root>
                <mxCell id="0"/>
                <mxCell id="1" parent="0"/>
                <mxCell id="4" value="&lt;font style=&quot;font-size: 18px;&quot;&gt;.rodata&lt;/font&gt;" style="rounded=0;whiteSpace=wrap;html=1;fillColor=none;fontColor=#FFFFFF;strokeColor=#FFFFFF;" parent="1" vertex="1">
                    <mxGeometry x="160" y="480" width="200" height="60" as="geometry"/>
                </mxCell>
                <mxCell id="5" value="" style="rounded=0;whiteSpace=wrap;html=1;fillColor=none;fontColor=#FFFFFF;strokeColor=#FFFFFF;" parent="1" vertex="1">
                    <mxGeometry x="160" y="540" width="200" height="180" as="geometry"/>
                </mxCell>
                <mxCell id="6" value="FLASH Start" style="text;html=1;strokeColor=none;fillColor=none;align=center;verticalAlign=middle;whiteSpace=wrap;rounded=0;fontSize=18;fontColor=#FFFFFF;" parent="1" vertex="1">
                    <mxGeometry x="28" y="345" width="140" height="30" as="geometry"/>
                </mxCell>
                <mxCell id="7" value="FLASH End" style="text;html=1;strokeColor=none;fillColor=none;align=center;verticalAlign=middle;whiteSpace=wrap;rounded=0;fontSize=18;fontColor=#FFFFFF;" parent="1" vertex="1">
                    <mxGeometry x="34" y="704" width="140" height="30" as="geometry"/>
                </mxCell>
                <mxCell id="8" value="FixedVectorsTop" parent="0" visible="0"/>
                <mxCell id="9" value="&lt;font style=&quot;font-size: 18px;&quot;&gt;.fixedVectors&lt;/font&gt;" style="rounded=0;whiteSpace=wrap;html=1;fillColor=none;fontColor=#FFFFFF;strokeColor=#FFFFFF;" parent="8" vertex="1">
                    <mxGeometry x="160" y="360" width="200" height="60" as="geometry"/>
                </mxCell>
                <mxCell id="10" value="&lt;font style=&quot;font-size: 18px;&quot;&gt;.text&lt;/font&gt;" style="rounded=0;whiteSpace=wrap;html=1;fillColor=none;fontColor=#FFFFFF;strokeColor=#FFFFFF;" parent="8" vertex="1">
                    <mxGeometry x="160" y="420" width="200" height="60" as="geometry"/>
                </mxCell>
                <mxCell id="11" value="FixedVectorsMiddle" parent="0"/>
                <mxCell id="12" value="&lt;font style=&quot;font-size: 18px;&quot;&gt;.fixedVectors&lt;/font&gt;" style="rounded=0;whiteSpace=wrap;html=1;fillColor=none;fontColor=#FFFFFF;strokeColor=#FFFFFF;" parent="11" vertex="1">
                    <mxGeometry x="160" y="420" width="200" height="60" as="geometry"/>
                </mxCell>
                <mxCell id="13" value="&lt;font style=&quot;font-size: 18px;&quot;&gt;.text&lt;/font&gt;" style="rounded=0;whiteSpace=wrap;html=1;fillColor=none;fontColor=#FFFFFF;strokeColor=#FFFFFF;" parent="11" vertex="1">
                    <mxGeometry x="160" y="360" width="200" height="60" as="geometry"/>
                </mxCell>
                <mxCell id="14" style="edgeStyle=none;html=1;exitX=1;exitY=0.75;exitDx=0;exitDy=0;fontColor=#FFFFFF;" parent="11" source="10" edge="1">
                    <mxGeometry relative="1" as="geometry">
                        <mxPoint x="360" y="450" as="targetPoint"/>
                    </mxGeometry>
                </mxCell>
                <mxCell id="20" value="" style="endArrow=classic;startArrow=classic;html=1;fontColor=#006600;strokeColor=#006600;strokeWidth=4;" parent="11" edge="1">
                    <mxGeometry width="50" height="50" relative="1" as="geometry">
                        <mxPoint x="330" y="450" as="sourcePoint"/>
                        <mxPoint x="330" y="390" as="targetPoint"/>
                        <Array as="points">
                            <mxPoint x="330" y="430"/>
                        </Array>
                    </mxGeometry>
                </mxCell>
            </root>
        </mxGraphModel>
    </diagram>
</mxfile>
